<svg xmlns="http://www.w3.org/2000/svg" x="0px" y="0px" width="100" height="100" viewBox="0 0 520 520">
<path fill="#414a56" d="M372.5,165v214.5c0,19.61-15.891,35.5-35.5,35.5H178c-19.61,0-35.5-15.89-35.5-35.5V165H372.5z"></path><path fill="#ff5987" d="M452.5,70c11.05,0,20,8.95,20,20s-8.95,20-20,20s-20-8.95-20-20S441.45,70,452.5,70z"></path><circle cx="75" cy="372.5" r="27.5" fill="#ff5987"></circle><path fill="#7d89aa" d="M332.5,210v150c0,8.28-6.721,15-15,15s-15-6.72-15-15V210c0-8.28,6.721-15,15-15 c4.141,0,7.891,1.68,10.6,4.4C330.82,202.11,332.5,205.86,332.5,210z"></path><path fill="#7d89aa" d="M272.5,210v150c0,8.28-6.721,15-15,15c-8.28,0-15-6.72-15-15V210c0-8.28,6.72-15,15-15 c4.141,0,7.891,1.68,10.6,4.4C270.82,202.11,272.5,205.86,272.5,210z"></path><path fill="#7d89aa" d="M212.5,210v150c0,8.28-6.72,15-15,15s-15-6.72-15-15V210c0-8.28,6.72-15,15-15 c4.14,0,7.89,1.68,10.6,4.4C210.82,202.11,212.5,205.86,212.5,210z"></path><path fill="#57606f" d="M397.5,142.5c0,12.43-10.07,22.5-22.5,22.5c-12.274,0-223.09,0-235,0 c-12.339,0-22.5-9.985-22.5-22.5c0-12.43,10.07-22.5,22.5-22.5c51.254,0,180.616,0,235,0C387.34,120,397.5,129.985,397.5,142.5z"></path><circle cx="440" cy="192.5" r="7.5"></circle><circle cx="435" cy="382.5" r="7.5"></circle><circle cx="390" cy="67.5" r="7.5"></circle><circle cx="255" cy="457.5" r="7.5"></circle><circle cx="195" cy="62.5" r="7.5"></circle><circle cx="105" cy="247.5" r="7.5"></circle><circle cx="65" cy="142.5" r="7.5"></circle><path d="M337,420H178c-22.332,0-40.5-18.168-40.5-40.5V165c0-2.761,2.239-5,5-5s5,2.239,5,5v214.5c0,16.817,13.682,30.5,30.5,30.5 h159c16.818,0,30.5-13.683,30.5-30.5V165c0-2.761,2.238-5,5-5s5,2.239,5,5v214.5C377.5,401.832,359.332,420,337,420z"></path><path d="M375,170H140c-7.345,0-14.251-2.86-19.445-8.054c-5.194-5.195-8.055-12.101-8.055-19.446c0-15.164,12.336-27.5,27.5-27.5 h87.5c2.761,0,5,2.239,5,5s-2.239,5-5,5H140c-9.649,0-17.5,7.851-17.5,17.5c0,4.674,1.82,9.069,5.125,12.375 c3.305,3.305,7.7,5.125,12.375,5.125h235c9.649,0,17.5-7.851,17.5-17.5c0-4.674-1.82-9.069-5.125-12.375 C384.069,126.82,379.674,125,375,125h-87.5c-2.762,0-5-2.239-5-5s2.238-5,5-5H375c7.346,0,14.251,2.86,19.445,8.054 c5.194,5.195,8.055,12.101,8.055,19.446C402.5,157.664,390.164,170,375,170z"></path><path d="M287.5,125h-60c-2.761,0-5-2.239-5-5v-10c0-19.299,15.701-35,35-35s35,15.701,35,35v10 C292.5,122.761,290.262,125,287.5,125z M232.5,115h50v-5c0-13.785-11.215-25-25-25s-25,11.215-25,25V115z"></path><path d="M197.5,380c-11.028,0-20-8.972-20-20V210c0-11.028,8.972-20,20-20c5.347,0,10.37,2.085,14.142,5.871 c3.773,3.76,5.858,8.782,5.858,14.129v150C217.5,371.028,208.528,380,197.5,380z M197.5,200c-5.514,0-10,4.486-10,10v150 c0,5.514,4.486,10,10,10s10-4.486,10-10V210c0-2.669-1.04-5.176-2.929-7.058C202.676,201.04,200.169,200,197.5,200z"></path><path d="M257.5,380c-11.028,0-20-8.972-20-20V210c0-11.028,8.972-20,20-20c5.348,0,10.369,2.085,14.143,5.871 c3.772,3.76,5.857,8.782,5.857,14.129v150C277.5,371.028,268.527,380,257.5,380z M257.5,200c-5.514,0-10,4.486-10,10v150 c0,5.514,4.486,10,10,10c5.514,0,10-4.486,10-10V210c0-2.669-1.04-5.176-2.93-7.058C262.676,201.04,260.17,200,257.5,200z"></path><path d="M317.5,380c-11.027,0-20-8.972-20-20V210c0-11.028,8.973-20,20-20c5.348,0,10.369,2.085,14.143,5.871 c3.772,3.76,5.857,8.782,5.857,14.129v150C337.5,371.028,328.527,380,317.5,380z M317.5,200c-5.514,0-10,4.486-10,10v150 c0,5.514,4.486,10,10,10s10-4.486,10-10V210c0-2.669-1.04-5.176-2.93-7.058C322.676,201.04,320.17,200,317.5,200z"></path><path d="M452.5,115c-13.785,0-25-11.215-25-25s11.215-25,25-25s25,11.215,25,25S466.285,115,452.5,115z M452.5,75 c-8.271,0-15,6.729-15,15s6.729,15,15,15s15-6.729,15-15S460.771,75,452.5,75z"></path><path d="M75,405c-17.92,0-32.5-14.579-32.5-32.5S57.08,340,75,340s32.5,14.579,32.5,32.5S92.92,405,75,405z M75,350 c-12.407,0-22.5,10.094-22.5,22.5S62.593,395,75,395s22.5-10.094,22.5-22.5S87.407,350,75,350z"></path>
</svg>